<svg width="50" height="44" viewBox="0 0 50 44" fill="none" xmlns="http://www.w3.org/2000/svg">
<path fill-rule="evenodd" clip-rule="evenodd" d="M44.8209 0.297057C45.4356 0.0340289 46.1085 -0.0566877 46.7694 0.0343482C47.4304 0.125384 48.0553 0.394845 48.579 0.814684C49.1028 1.23452 49.5062 1.78939 49.7474 2.42154C49.9887 3.05368 50.0588 3.74 49.9505 4.40904L44.3084 39.199C43.7611 42.5549 40.139 44.4794 37.1114 42.8078C34.5789 41.4093 30.8175 39.2547 27.4342 37.0065C25.7426 35.8811 20.5607 32.2775 21.1975 29.7132C21.7448 27.5206 30.4518 19.2815 35.4272 14.383C37.3801 12.4585 36.4895 11.3483 34.1834 13.1186C28.4542 17.5138 19.2621 24.1976 16.2221 26.0791C13.5403 27.7381 12.1422 28.0213 10.4705 27.7381C7.42057 27.2222 4.59204 26.4231 2.28344 25.4494C-0.836151 24.1344 -0.6844 19.7746 2.28095 18.5051L44.8209 0.297057Z" fill="white"/>
</svg>
