<svg width="50" height="41" viewBox="0 0 50 41" fill="none" xmlns="http://www.w3.org/2000/svg">
<path d="M50 4.73856C48.1597 5.56781 46.1759 6.11275 44.1205 6.37337C46.2237 5.11765 47.849 3.12745 48.6138 0.734477C46.63 1.91912 44.4312 2.74837 42.1128 3.22222C40.2247 1.18464 37.5717 0 34.5602 0C28.9436 0 24.3547 4.54902 24.3547 10.1642C24.3547 10.9698 24.4503 11.7516 24.6176 12.4861C16.109 12.0596 8.53251 8.00817 3.48948 1.87173C2.60516 3.36438 2.10325 5.11765 2.10325 6.96569C2.10325 10.4959 3.89579 13.6234 6.66826 15.4003C4.97132 15.4003 3.39388 14.9265 2.00765 14.2157V14.2868C2.00765 19.2149 5.54493 23.3374 10.2294 24.2614C8.72545 24.6694 7.1465 24.7262 5.61664 24.4273C6.26579 26.4471 7.53713 28.2144 9.25195 29.4808C10.9668 30.7472 13.0388 31.4491 15.1769 31.4877C11.5527 34.3319 7.06022 35.8693 2.43786 35.8472C1.62524 35.8472 0.81262 35.7998 0 35.7051C4.54111 38.5956 9.94264 40.2778 15.7266 40.2778C34.5602 40.2778 44.9092 24.7827 44.9092 11.3489C44.9092 10.8987 44.9092 10.4722 44.8853 10.0221C46.8929 8.60049 48.6138 6.79984 50 4.73856Z" fill="white"/>
</svg>
